<?xml version="1.0" encoding="iso-8859-1"?>
<!-- Generator: Adobe Illustrator 19.0.0, SVG Export Plug-In . SVG Version: 6.00 Build 0)  -->
<svg version="1.1" id="Layer_1" xmlns="http://www.w3.org/2000/svg" xmlns:xlink="http://www.w3.org/1999/xlink" x="0px" y="0px"
	 viewBox="0 0 512 512" style="enable-background:new 0 0 512 512;" xml:space="preserve">
<g transform="translate(1 1)">
	<g>
		<g>
			<path d="M466.862-1H43.138C18.421-1-1,18.421-1,43.138v423.724C-1,491.579,18.421,511,43.138,511h423.724
				C491.579,511,511,491.579,511,466.862V43.138C511,18.421,491.579-1,466.862-1z M493.345,466.862
				c0,15.007-11.476,26.483-26.483,26.483H43.138c-15.007,0-26.483-11.476-26.483-26.483V43.138
				c0-15.007,11.476-26.483,26.483-26.483h423.724c15.007,0,26.483,11.476,26.483,26.483V466.862z"/>
			<path d="M360.931,299.138c24.717,0,44.138-19.421,44.138-44.138s-19.421-44.138-44.138-44.138S316.793,230.283,316.793,255
				S336.214,299.138,360.931,299.138z M360.931,228.517c15.007,0,26.483,11.476,26.483,26.483s-11.476,26.483-26.483,26.483
				S334.448,270.007,334.448,255S345.924,228.517,360.931,228.517z"/>
			<path d="M149.069,299.138c24.717,0,44.138-19.421,44.138-44.138s-19.421-44.138-44.138-44.138S104.931,230.283,104.931,255
				S124.352,299.138,149.069,299.138z M149.069,228.517c15.007,0,26.483,11.476,26.483,26.483s-11.476,26.483-26.483,26.483
				S122.586,270.007,122.586,255S134.062,228.517,149.069,228.517z"/>
			<path d="M149.069,405.069c24.717,0,44.138-19.421,44.138-44.138s-19.421-44.138-44.138-44.138s-44.138,19.421-44.138,44.138
				S124.352,405.069,149.069,405.069z M149.069,334.448c15.007,0,26.483,11.476,26.483,26.483s-11.476,26.483-26.483,26.483
				s-26.483-11.476-26.483-26.483S134.062,334.448,149.069,334.448z"/>
			<path d="M149.069,193.207c24.717,0,44.138-19.421,44.138-44.138s-19.421-44.138-44.138-44.138s-44.138,19.421-44.138,44.138
				S124.352,193.207,149.069,193.207z M149.069,122.586c15.007,0,26.483,11.476,26.483,26.483s-11.476,26.483-26.483,26.483
				s-26.483-11.476-26.483-26.483S134.062,122.586,149.069,122.586z"/>
			<path d="M360.931,316.793c-24.717,0-44.138,19.421-44.138,44.138s19.421,44.138,44.138,44.138s44.138-19.421,44.138-44.138
				S385.648,316.793,360.931,316.793z M360.931,387.414c-15.007,0-26.483-11.476-26.483-26.483s11.476-26.483,26.483-26.483
				s26.483,11.476,26.483,26.483S375.938,387.414,360.931,387.414z"/>
			<path d="M360.931,193.207c24.717,0,44.138-19.421,44.138-44.138s-19.421-44.138-44.138-44.138s-44.138,19.421-44.138,44.138
				S336.214,193.207,360.931,193.207z M360.931,122.586c15.007,0,26.483,11.476,26.483,26.483s-11.476,26.483-26.483,26.483
				s-26.483-11.476-26.483-26.483S345.924,122.586,360.931,122.586z"/>
			<path d="M378.586,449.207H65.207c-2.648,0-4.414-1.766-4.414-4.414V175.552c0-5.297-3.531-8.828-8.828-8.828
				s-8.828,3.531-8.828,8.828v269.241c0,12.359,9.71,22.069,22.069,22.069h313.379c5.297,0,8.828-3.531,8.828-8.828
				C387.414,452.738,383.883,449.207,378.586,449.207z"/>
			<path d="M444.793,43.138H65.207c-12.359,0-22.069,9.71-22.069,22.069v39.724c0,5.297,3.531,8.828,8.828,8.828
				s8.828-3.531,8.828-8.828V65.207c0-2.648,1.766-4.414,4.414-4.414h379.586c2.648,0,4.414,1.766,4.414,4.414v379.586
				c0,2.648-1.766,4.414-4.414,4.414h-30.897c-5.297,0-8.828,3.531-8.828,8.828c0,5.297,3.531,8.828,8.828,8.828h30.897
				c12.359,0,22.069-9.71,22.069-22.069V65.207C466.862,52.848,457.152,43.138,444.793,43.138z"/>
			<path d="M51.966,149.069c5.297,0,8.828-3.531,8.828-8.828s-3.531-8.828-8.828-8.828s-8.828,3.531-8.828,8.828
				S46.669,149.069,51.966,149.069z"/>
		</g>
	</g>
</g>
<g>
</g>
<g>
</g>
<g>
</g>
<g>
</g>
<g>
</g>
<g>
</g>
<g>
</g>
<g>
</g>
<g>
</g>
<g>
</g>
<g>
</g>
<g>
</g>
<g>
</g>
<g>
</g>
<g>
</g>
</svg>
